<svg xmlns="http://www.w3.org/2000/svg" viewBox="0 0 256 256">
  <rect width="256" height="256" fill="#0EA5E9"/>
  <path d="M128 60c-8 0-14 6-20 14-6 8-12 18-20 18s-14-10-20-18c-6-8-12-14-20-14v20c4 0 8 6 12 12 6 8 14 20 28 20s22-12 28-20c4-6 8-12 12-12s8 6 12 12c6 8 14 20 28 20s22-12 28-20c4-6 8-12 12-12v-20c-8 0-14 6-20 14-6 8-12 18-20 18s-14-10-20-18c-6-8-12-14-20-14z" fill="#0284C7"/>
  <path d="M128 110c-8 0-14 6-20 14-6 8-12 18-20 18s-14-10-20-18c-6-8-12-14-20-14v20c4 0 8 6 12 12 6 8 14 20 28 20s22-12 28-20c4-6 8-12 12-12s8 6 12 12c6 8 14 20 28 20s22-12 28-20c4-6 8-12 12-12v-20c-8 0-14 6-20 14-6 8-12 18-20 18s-14-10-20-18c-6-8-12-14-20-14z" fill="#0284C7"/>
  <path d="M128 160c-8 0-14 6-20 14-6 8-12 18-20 18s-14-10-20-18c-6-8-12-14-20-14v20c4 0 8 6 12 12 6 8 14 20 28 20s22-12 28-20c4-6 8-12 12-12s8 6 12 12c6 8 14 20 28 20s22-12 28-20c4-6 8-12 12-12v-20c-8 0-14 6-20 14-6 8-12 18-20 18s-14-10-20-18c-6-8-12-14-20-14z" fill="#0284C7"/>
</svg>